<svg xmlns="http://www.w3.org/2000/svg" viewBox="0 0 900 900" shape-rendering="crispEdges"><defs><radialGradient id="bg" cx="50%" cy="42%" r="64%"><stop offset="0%" stop-color="#050207"/><stop offset="45%" stop-color="#1e1b4b"/><stop offset="100%" stop-color="#010104"/></radialGradient><linearGradient id="skin" x1="0" x2="1" y1="0" y2="1"><stop stop-color="#020208"/><stop offset=".45" stop-color="#05030a"/><stop offset="1" stop-color="#000"/></linearGradient><linearGradient id="edge" x1="0" x2="1"><stop stop-color="#f43f5e"/><stop offset=".5" stop-color="#d946ef"/><stop offset="1" stop-color="#38bdf8"/></linearGradient><filter id="glow"><feGaussianBlur stdDeviation="4.5" result="b"/><feMerge><feMergeNode in="b"/><feMergeNode in="SourceGraphic"/></feMerge></filter><filter id="shadow"><feDropShadow dx="0" dy="26" stdDeviation="20" flood-color="#000" flood-opacity=".86"/></filter><pattern id="scan" width="10" height="10" patternUnits="userSpaceOnUse"><path d="M0 0H10" stroke="#f5f5f4" stroke-opacity=".11"/></pattern></defs><rect width="900" height="900" fill="#010104"/><rect width="900" height="900" fill="url(#bg)"/><rect width="900" height="900" fill="url(#scan)" opacity=".86"/><g fill="#f5f5f4" opacity=".68"><rect x="273" y="149" width="2" height="2"/><rect x="191" y="319" width="3" height="3"/><rect x="155" y="166" width="3" height="3"/><rect x="175" y="228" width="3" height="3"/><rect x="126" y="189" width="3" height="3"/><rect x="155" y="218" width="2" height="2"/><rect x="63" y="266" width="2" height="2"/><rect x="173" y="167" width="2" height="2"/><rect x="135" y="271" width="1" height="1"/><rect x="305" y="83" width="2" height="2"/><rect x="152" y="275" width="2" height="2"/><rect x="214" y="269" width="1" height="1"/><rect x="175" y="221" width="3" height="3"/><rect x="204" y="142" width="1" height="1"/><rect x="252" y="157" width="3" height="3"/><rect x="153" y="151" width="2" height="2"/><rect x="257" y="207" width="3" height="3"/><rect x="69" y="151" width="2" height="2"/><rect x="261" y="205" width="2" height="2"/><rect x="255" y="252" width="1" height="1"/><rect x="207" y="248" width="3" height="3"/><rect x="128" y="111" width="2" height="2"/><rect x="143" y="134" width="3" height="3"/><rect x="137" y="118" width="2" height="2"/></g><g stroke="#1e1b4b" stroke-width="1" opacity=".42"><path d="M0 144H900M0 268H900M0 632H900M0 756H900M144 0V900M268 0V900M632 0V900M756 0V900"/></g><path d="M78 720C190 620 318 744 450 646S696 590 824 682" fill="none" stroke="#38bdf8" stroke-opacity=".28" stroke-width="2"/><path d="M80 246C210 148 324 280 450 202S682 150 820 230" fill="none" stroke="#f43f5e" stroke-opacity=".25" stroke-width="2"/><g filter="url(#glow)" fill="none"><circle cx="450" cy="424" r="272" stroke="#f43f5e" stroke-opacity=".36" stroke-width="3"/><circle cx="450" cy="424" r="218" stroke="#38bdf8" stroke-opacity=".3" stroke-width="2"/><ellipse cx="450" cy="424" rx="326" ry="104" stroke="#d946ef" stroke-opacity=".34" stroke-width="2"/><ellipse cx="450" cy="424" rx="168" ry="304" stroke="#f5f5f4" stroke-opacity=".18" stroke-width="1"/><path d="M124 424H335M571 424H776" stroke="#f5f5f4" stroke-opacity=".52" stroke-width="2"/></g><g filter="url(#shadow)"><path d="M450 208L568 238L626 305L604 548L520 677L450 724L380 677L296 548L274 305L332 238Z" fill="url(#skin)" stroke="url(#edge)" stroke-width="4"/><path d="M450 238L530 306L548 438L514 562L450 632L386 562L352 438L370 306Z" fill="#000" fill-opacity=".52" stroke="#f43f5e" stroke-opacity=".42" stroke-width="2"/><path d="M342 392H420L438 420L414 448H338L314 420Z" fill="#f43f5e" fill-opacity=".18" stroke="#f43f5e" stroke-width="2"/><path d="M480 420L498 392H576L604 420L580 448H504Z" fill="#38bdf8" fill-opacity=".18" stroke="#38bdf8" stroke-width="2"/><path d="M450 340V578M414 514H486M430 598H470" stroke="#f5f5f4" stroke-opacity=".38" stroke-width="2"/><path d="M390 274H510M362 606H538M330 328L292 300M570 328L608 300" stroke="#d946ef" stroke-opacity=".44" stroke-width="2"/></g><g filter="url(#glow)"><circle cx="450" cy="464" r="26" fill="#f5f5f4" fill-opacity=".82"/><circle cx="450" cy="464" r="11" fill="#010104"/><path d="M450 188V146M450 724V776M274 424H226M626 424H674" stroke="#f43f5e" stroke-opacity=".7" stroke-width="3"/></g><g font-family="ui-monospace, SFMono-Regular, Menlo, Consolas, monospace" font-size="14" letter-spacing="2"><text x="106" y="282" fill="#f43f5e">+(:#.:+]/:|-#=)+|=.</text><text x="106" y="314" fill="#f5f5f4">]/:|-#=)+|=./)]]|0|</text><text x="106" y="346" fill="#38bdf8">)+|=./)]]|0|(0=[/1+</text><text x="794" y="282" text-anchor="end" fill="#38bdf8">]]|0|(0=[/1+(:#.:+]</text><text x="794" y="314" text-anchor="end" fill="#f5f5f4">.:+]/:|-#=)+|=./)]]</text><text x="794" y="346" text-anchor="end" fill="#f43f5e">-#=)+|=./)]]|0|(0=[</text></g><g stroke="#f5f5f4" stroke-opacity=".5" stroke-width="2"><path d="M106 156H249L341 188H507L609 177H794"/><path d="M106 744H246L380 753H556L646 745H794"/></g><g fill="#f43f5e" opacity=".72"><rect x="178" y="132" width="17" height="23"/><rect x="223" y="132" width="5" height="28"/><rect x="268" y="132" width="8" height="57"/><rect x="313" y="132" width="5" height="19"/><rect x="358" y="132" width="5" height="21"/><rect x="403" y="132" width="8" height="37"/><rect x="448" y="132" width="17" height="45"/><rect x="493" y="132" width="9" height="54"/><rect x="538" y="132" width="9" height="62"/><rect x="583" y="132" width="16" height="23"/><rect x="628" y="132" width="13" height="52"/><rect x="673" y="132" width="7" height="46"/><rect x="178" y="716" width="13" height="52"/><rect x="223" y="716" width="7" height="46"/><rect x="268" y="716" width="11" height="55"/><rect x="313" y="716" width="10" height="51"/><rect x="358" y="716" width="12" height="25"/><rect x="403" y="716" width="6" height="55"/><rect x="448" y="716" width="10" height="49"/><rect x="493" y="716" width="6" height="55"/><rect x="538" y="716" width="8" height="30"/><rect x="583" y="716" width="16" height="45"/><rect x="628" y="716" width="12" height="39"/><rect x="673" y="716" width="5" height="41"/></g><g font-family="ui-monospace, SFMono-Regular, Menlo, Consolas, monospace" text-anchor="middle"><text x="450" y="118" fill="#f5f5f4" font-size="30" letter-spacing="10">identity.md</text><text x="450" y="160" fill="#f43f5e" font-size="15" letter-spacing="5">ID/1450 / NULL ARCHIVE</text><text x="450" y="820" fill="#f5f5f4" font-size="14" letter-spacing="4">IPFS / UNWRITTEN</text></g></svg>